<?xml version="1.0" standalone="no"?>
<!DOCTYPE svg PUBLIC "-//W3C//DTD SVG 20010904//EN"
 "http://www.w3.org/TR/2001/REC-SVG-20010904/DTD/svg10.dtd">
<svg version="1.0" xmlns="http://www.w3.org/2000/svg"
 width="100.000000pt" height="100.000000pt" viewBox="0 0 100.000000 100.000000"
 preserveAspectRatio="xMidYMid meet">
<metadata>
Created by potrace 1.11, written by Peter Selinger 2001-2013
</metadata>
<g transform="translate(0.000000,100.000000) scale(0.100000,-0.100000)"
fill="#000000" stroke="none">
<path d="M516 810 l-49 -5 1 -290 c1 -159 1 -299 2 -310 0 -18 7 -21 55 -23
l55 -2 0 125 0 125 28 1 c85 3 115 -1 132 -16 10 -9 29 -62 45 -125 l28 -109
59 0 c32 0 58 5 58 11 0 5 -15 59 -32 120 -28 94 -38 115 -65 137 l-32 25 31
11 c50 16 72 55 76 135 6 94 -21 151 -81 175 -43 17 -214 26 -311 15z m185
-89 c64 -1 90 -24 94 -81 6 -91 -19 -112 -137 -115 l-78 -2 0 98 c0 104 2 108
55 103 11 -1 41 -3 66 -3z"/>
<path d="M170 557 c0 -187 -3 -257 -12 -270 -7 -9 -31 -17 -53 -19 -36 -3 -40
-6 -46 -38 -4 -19 -4 -39 1 -44 5 -5 41 -10 79 -10 64 -1 72 1 100 28 17 17
34 45 37 64 5 28 9 450 5 523 -1 13 -13 17 -56 18 l-55 1 0 -253z"/>
</g>
</svg>
